<?xml version="1.0" encoding="utf-8"?><svg xmlns="http://www.w3.org/2000/svg" xmlns:xlink="http://www.w3.org/1999/xlink"><symbol fill="none" viewBox="0 0 16 16" id="Facebook" xmlns="http://www.w3.org/2000/svg"><path d="M16 8a8 8 0 1 0-9.25 7.903v-5.59H4.719V8H6.75V6.237c0-2.005 1.194-3.112 3.022-3.112.875 0 1.79.156 1.79.156V5.25h-1.008c-.994 0-1.304.617-1.304 1.25V8h2.219l-.355 2.313H9.25v5.59A8.002 8.002 0 0 0 16 8Z" fill="currentColor"/></symbol><symbol fill="none" viewBox="0 0 16 16" id="Instagram" xmlns="http://www.w3.org/2000/svg"><g clip-path="url(#ba)" fill="currentColor"><path d="M8 1.44c2.137 0 2.39.01 3.231.048.781.034 1.203.165 1.485.274.372.144.64.32.918.597.282.282.454.547.597.92.11.28.24.705.275 1.484.038.843.047 1.096.047 3.23 0 2.138-.01 2.391-.047 3.232-.034.781-.165 1.203-.275 1.484-.143.372-.319.641-.597.92a2.46 2.46 0 0 1-.918.596c-.282.11-.707.24-1.485.275-.844.037-1.097.047-3.231.047-2.138 0-2.39-.01-3.231-.047-.782-.034-1.203-.166-1.485-.275a2.474 2.474 0 0 1-.918-.597 2.46 2.46 0 0 1-.597-.919c-.11-.28-.24-.706-.275-1.484-.038-.844-.047-1.097-.047-3.231 0-2.138.01-2.39.047-3.231.034-.782.165-1.204.275-1.485.144-.372.319-.64.597-.919a2.46 2.46 0 0 1 .918-.597c.282-.109.707-.24 1.485-.274C5.609 1.45 5.862 1.44 8 1.44ZM8 0C5.828 0 5.556.01 4.703.047c-.85.037-1.434.175-1.94.372a3.905 3.905 0 0 0-1.42.925A3.92 3.92 0 0 0 .42 2.759C.222 3.27.084 3.85.047 4.7.009 5.556 0 5.828 0 8c0 2.172.01 2.444.047 3.297.037.85.175 1.434.372 1.94.206.529.478.976.925 1.42.444.443.89.718 1.415.921.51.197 1.091.335 1.941.372.853.038 1.125.047 3.297.047s2.444-.01 3.297-.047c.85-.037 1.434-.175 1.94-.372a3.91 3.91 0 0 0 1.416-.922 3.91 3.91 0 0 0 .922-1.415c.197-.51.334-1.091.372-1.941.037-.853.047-1.125.047-3.297s-.01-2.444-.047-3.297c-.038-.85-.175-1.434-.372-1.94a3.748 3.748 0 0 0-.916-1.422 3.911 3.911 0 0 0-1.415-.922C12.73.225 12.15.088 11.3.05 10.444.01 10.172 0 8 0Z"/><path d="M8 3.89a4.11 4.11 0 0 0 0 8.22 4.11 4.11 0 0 0 0-8.22Zm0 6.776a2.666 2.666 0 1 1 0-5.332 2.666 2.666 0 0 1 0 5.332ZM13.231 3.728a.96.96 0 1 1-1.919 0 .96.96 0 0 1 1.92 0Z"/></g><defs><clipPath id="ba"><path fill="#fff" d="M0 0h16v16H0z"/></clipPath></defs></symbol><symbol fill="none" viewBox="0 0 16 16" id="Linkedin" xmlns="http://www.w3.org/2000/svg"><g clip-path="url(#ca)"><path d="M14.816 0H1.18C.528 0 0 .516 0 1.153v13.69A1.17 1.17 0 0 0 1.181 16h13.635c.653 0 1.184-.519 1.184-1.153V1.153C16 .516 15.469 0 14.816 0ZM4.746 13.634H2.373V5.997h2.375v7.637ZM3.56 4.956a1.376 1.376 0 1 1-.004-2.751 1.376 1.376 0 0 1 .004 2.751Zm10.075 8.678h-2.372V9.922c0-.885-.015-2.025-1.234-2.025-1.234 0-1.422.966-1.422 1.962v3.775H6.237V5.997h2.275V7.04h.032c.315-.6 1.09-1.235 2.243-1.235 2.404 0 2.847 1.582 2.847 3.638v4.19Z" fill="currentColor"/></g><defs><clipPath id="ca"><path fill="#fff" d="M0 0h16v16H0z"/></clipPath></defs></symbol><symbol fill="none" viewBox="0 0 160 32" id="Logoipsum" xmlns="http://www.w3.org/2000/svg"><g clip-path="url(#da)" fill="#282938"><path d="M24.447 14.083a4.368 4.368 0 0 0-.998 1.607 4.423 4.423 0 0 0-.23 1.885l-.022-.022a5.253 5.253 0 0 1-.292 2.215 5.19 5.19 0 0 1-1.184 1.883 5.09 5.09 0 0 1-1.854 1.202 5.03 5.03 0 0 1-2.181.297l.021.021a4.265 4.265 0 0 0-2.544.56 4.36 4.36 0 0 0-1.765 1.943 4.445 4.445 0 0 0-.345 2.62 4.41 4.41 0 0 0 1.201 2.345 4.298 4.298 0 0 0 2.311 1.218 4.26 4.26 0 0 0 2.58-.352 4.345 4.345 0 0 0 1.912-1.794 4.44 4.44 0 0 0 .55-2.584l.022.021a5.253 5.253 0 0 1 .292-2.214 5.189 5.189 0 0 1 1.184-1.883 5.09 5.09 0 0 1 1.854-1.202 5.028 5.028 0 0 1 2.181-.297l-.022-.021a4.251 4.251 0 0 0 2.114-.35 4.32 4.32 0 0 0 1.688-1.34 4.44 4.44 0 0 0 .635-4.165 4.377 4.377 0 0 0-1.21-1.796 4.286 4.286 0 0 0-1.912-.982 4.246 4.246 0 0 0-2.141.074c-.696.207-1.33.589-1.842 1.11h-.003ZM15.785 20.36l-.023-.022a4.202 4.202 0 0 0 1.859-.23 4.252 4.252 0 0 0 1.582-1.015 4.337 4.337 0 0 0 1.002-1.606 4.39 4.39 0 0 0 .227-1.887l.022.022a5.253 5.253 0 0 1 .292-2.214 5.19 5.19 0 0 1 1.184-1.884 5.091 5.091 0 0 1 1.855-1.202 5.03 5.03 0 0 1 2.18-.296l-.022-.022a4.266 4.266 0 0 0 2.545-.558 4.36 4.36 0 0 0 1.767-1.942 4.447 4.447 0 0 0 .346-2.62 4.408 4.408 0 0 0-1.2-2.346 4.297 4.297 0 0 0-2.31-1.22 4.26 4.26 0 0 0-2.581.352 4.344 4.344 0 0 0-1.913 1.794 4.441 4.441 0 0 0-.55 2.584l-.02-.022a5.25 5.25 0 0 1-.292 2.214 5.188 5.188 0 0 1-1.184 1.884 5.09 5.09 0 0 1-1.855 1.202 5.029 5.029 0 0 1-2.181.296l.021.023a4.205 4.205 0 0 0-1.858.229 4.253 4.253 0 0 0-1.583 1.016 4.338 4.338 0 0 0-1.001 1.606 4.39 4.39 0 0 0-.227 1.886l-.022-.02a5.254 5.254 0 0 1-.292 2.213 5.189 5.189 0 0 1-1.184 1.883 5.092 5.092 0 0 1-1.854 1.202 5.03 5.03 0 0 1-2.181.297l.021.022a4.264 4.264 0 0 0-2.545.558 4.36 4.36 0 0 0-1.767 1.942 4.446 4.446 0 0 0-.346 2.62 4.408 4.408 0 0 0 1.2 2.346 4.297 4.297 0 0 0 2.311 1.22 4.26 4.26 0 0 0 2.58-.352 4.345 4.345 0 0 0 1.913-1.794c.441-.784.633-1.686.55-2.584l.022.021a5.253 5.253 0 0 1 .292-2.214 5.19 5.19 0 0 1 1.184-1.884 5.092 5.092 0 0 1 1.855-1.202 5.03 5.03 0 0 1 2.18-.296ZM7.914 17.967a4.363 4.363 0 0 0 .998-1.607c.212-.603.29-1.247.23-1.885l.022.021a5.253 5.253 0 0 1 .292-2.214c.255-.708.66-1.351 1.184-1.884a5.092 5.092 0 0 1 1.856-1.202 5.029 5.029 0 0 1 2.181-.296l-.022-.021A4.263 4.263 0 0 0 17.2 8.32a4.359 4.359 0 0 0 1.766-1.942 4.445 4.445 0 0 0 .346-2.62 4.407 4.407 0 0 0-1.2-2.345A4.296 4.296 0 0 0 15.8.196a4.258 4.258 0 0 0-2.58.35A4.344 4.344 0 0 0 11.31 2.34a4.44 4.44 0 0 0-.55 2.583l-.02-.021a5.253 5.253 0 0 1-.293 2.214 5.189 5.189 0 0 1-1.184 1.883 5.092 5.092 0 0 1-1.854 1.202 5.028 5.028 0 0 1-2.181.297l.021.021a4.252 4.252 0 0 0-2.114.35 4.32 4.32 0 0 0-1.688 1.341 4.44 4.44 0 0 0-.634 4.165c.249.692.665 1.31 1.21 1.795a4.285 4.285 0 0 0 1.912.982 4.247 4.247 0 0 0 2.141-.074 4.297 4.297 0 0 0 1.842-1.11h-.003ZM44.285 6.076h3.487v17.231h-3.487V6.077ZM49.748 17.407a6.324 6.324 0 0 1 1.027-3.482 6.182 6.182 0 0 1 2.76-2.315 6.073 6.073 0 0 1 3.56-.366 6.131 6.131 0 0 1 3.161 1.706 6.285 6.285 0 0 1 1.693 3.203 6.345 6.345 0 0 1-.346 3.618 6.236 6.236 0 0 1-2.269 2.811 6.095 6.095 0 0 1-3.425 1.056 6.01 6.01 0 0 1-2.363-.455 6.086 6.086 0 0 1-2.005-1.347 6.192 6.192 0 0 1-1.336-2.031 6.268 6.268 0 0 1-.457-2.398Zm8.834 0a2.744 2.744 0 0 0-.486-1.488 2.682 2.682 0 0 0-1.215-.966 2.637 2.637 0 0 0-1.54-.124 2.665 2.665 0 0 0-1.35.76 2.731 2.731 0 0 0-.71 1.391 2.754 2.754 0 0 0 .164 1.56c.204.491.547.911.986 1.206.438.295.952.453 1.478.453a2.603 2.603 0 0 0 1.939-.8 2.684 2.684 0 0 0 .735-1.99ZM75.969 11.506v11.207c0 3.965-3.046 5.641-6.137 5.641a5.867 5.867 0 0 1-3.15-.645 5.981 5.981 0 0 1-2.36-2.216l2.976-1.747c.24.493.622.9 1.096 1.165a2.623 2.623 0 0 0 1.554.322c.344.049.694.018 1.025-.09.33-.108.633-.29.885-.532.253-.242.448-.54.572-.869.124-.329.173-.683.144-1.034v-1.079c-.408.507-.928.91-1.517 1.177a4.074 4.074 0 0 1-1.877.357 5.866 5.866 0 0 1-4.056-1.82 6.046 6.046 0 0 1-1.665-4.175c0-1.558.597-3.055 1.665-4.174a5.867 5.867 0 0 1 4.056-1.82 4.075 4.075 0 0 1 1.877.357c.59.266 1.109.67 1.517 1.177v-1.204l3.395.002Zm-3.393 5.664a2.894 2.894 0 0 0-.418-1.621 2.832 2.832 0 0 0-1.24-1.106 2.78 2.78 0 0 0-3.11.544 2.874 2.874 0 0 0-.803 1.464 2.903 2.903 0 0 0 .141 1.67c.21.53.572.983 1.039 1.302.466.32 1.016.49 1.578.49a2.596 2.596 0 0 0 2.005-.739c.265-.258.474-.57.613-.915.139-.345.205-.716.195-1.089ZM77.944 17.407a6.324 6.324 0 0 1 1.026-3.482 6.182 6.182 0 0 1 2.76-2.315 6.073 6.073 0 0 1 3.561-.366 6.131 6.131 0 0 1 3.16 1.706 6.285 6.285 0 0 1 1.694 3.203 6.344 6.344 0 0 1-.347 3.618 6.236 6.236 0 0 1-2.268 2.811 6.095 6.095 0 0 1-3.426 1.056 6.009 6.009 0 0 1-2.362-.455 6.085 6.085 0 0 1-2.006-1.347 6.192 6.192 0 0 1-1.335-2.031 6.27 6.27 0 0 1-.457-2.398Zm8.834 0a2.745 2.745 0 0 0-.487-1.488 2.681 2.681 0 0 0-1.215-.966 2.636 2.636 0 0 0-1.539-.124 2.665 2.665 0 0 0-1.35.76 2.73 2.73 0 0 0-.712 1.391 2.755 2.755 0 0 0 .165 1.56c.205.491.548.911.986 1.206.438.295.952.453 1.478.453a2.603 2.603 0 0 0 1.939-.8 2.687 2.687 0 0 0 .735-1.99ZM91.89 8.342c0-.42.123-.83.353-1.18.23-.35.557-.622.94-.783.382-.16.802-.202 1.208-.12.406.082.778.284 1.072.581a2.147 2.147 0 0 1-.317 3.269 2.07 2.07 0 0 1-1.163.358 2.099 2.099 0 0 1-1.474-.629 2.163 2.163 0 0 1-.618-1.496Zm.353 3.163h3.488v11.803h-3.493l.005-11.803ZM110.789 17.407c.04.78-.071 1.56-.329 2.297a5.955 5.955 0 0 1-1.173 1.992 5.854 5.854 0 0 1-1.835 1.381 5.772 5.772 0 0 1-2.219.56 4.303 4.303 0 0 1-1.891-.323 4.362 4.362 0 0 1-1.571-1.116v5.83h-3.488V11.507h3.488v1.108a4.363 4.363 0 0 1 1.572-1.115 4.3 4.3 0 0 1 1.89-.324 5.772 5.772 0 0 1 2.219.56c.695.334 1.32.804 1.836 1.383a5.959 5.959 0 0 1 1.501 4.29Zm-3.487 0a2.827 2.827 0 0 0-.5-1.54 2.769 2.769 0 0 0-1.255-1.004 2.725 2.725 0 0 0-1.592-.131 2.757 2.757 0 0 0-1.399.785c-.38.395-.637.896-.738 1.439-.1.543-.042 1.104.169 1.613.212.509.567.944 1.02 1.25.454.305.986.468 1.53.467.373.017.746-.046 1.094-.186.348-.14.662-.352.924-.624a2.73 2.73 0 0 0 .747-2.069ZM121.548 19.767c0 2.714-2.323 3.87-4.833 3.87a5.026 5.026 0 0 1-2.924-.625 5.128 5.128 0 0 1-2.074-2.183l3.02-1.747c.123.427.385.797.744 1.05.36.254.793.375 1.229.343.837 0 1.255-.26 1.255-.731 0-1.3-5.719-.614-5.719-4.697 0-2.574 2.14-3.872 4.557-3.872.909-.029 1.809.19 2.606.634a5.12 5.12 0 0 1 1.926 1.892l-2.975 1.628a1.71 1.71 0 0 0-.625-.757 1.67 1.67 0 0 0-.932-.281c-.604 0-.977.238-.977.66.004 1.346 5.722.448 5.722 4.816ZM134.289 11.505v11.803h-3.487v-1.11c-.402.49-.913.876-1.49 1.126a3.921 3.921 0 0 1-1.833.314c-2.348 0-4.344-1.698-4.344-4.888v-7.245h3.487v6.727a1.973 1.973 0 0 0 .521 1.549 1.914 1.914 0 0 0 1.501.597c1.279 0 2.161-.755 2.161-2.431v-6.438l3.484-.004ZM154.283 16.061v7.247h-3.487v-6.94c0-1.18-.559-1.935-1.674-1.935-1.162 0-1.814.826-1.814 2.218v6.657h-3.485v-6.94c0-1.18-.559-1.935-1.675-1.935-1.163 0-1.813.826-1.813 2.218v6.657h-3.487V11.505h3.487v1.084a3.578 3.578 0 0 1 1.381-1.11 3.518 3.518 0 0 1 1.734-.305 3.412 3.412 0 0 1 1.724.371c.534.273.989.682 1.321 1.186a3.836 3.836 0 0 1 1.488-1.22 3.777 3.777 0 0 1 1.882-.337c2.669.002 4.418 1.937 4.418 4.887ZM157.234 11.432c1.429 0 2.588-1.176 2.588-2.627 0-1.451-1.159-2.628-2.588-2.628-1.428 0-2.588 1.177-2.588 2.628s1.16 2.627 2.588 2.627Z"/></g><defs><clipPath id="da"><rect fill="#000"/></clipPath></defs></symbol><symbol fill="none" viewBox="0 0 136 32" id="Logoipsum1" xmlns="http://www.w3.org/2000/svg"><g clip-path="url(#ea)" fill="#282938"><path d="M32.934 7.806h3.119v15.162h-3.12V7.806ZM37.797 17.774c0-1.091.321-2.157.922-3.064a5.47 5.47 0 0 1 2.455-2.029c1-.416 2.098-.523 3.158-.308a5.444 5.444 0 0 1 2.794 1.517 5.524 5.524 0 0 1 1.486 2.828 5.556 5.556 0 0 1-.323 3.186 5.497 5.497 0 0 1-2.024 2.465c-.902.602-1.96.92-3.04.913a5.344 5.344 0 0 1-2.091-.408 5.384 5.384 0 0 1-1.77-1.194 5.478 5.478 0 0 1-1.566-3.906Zm7.819 0a2.408 2.408 0 0 0-.43-1.312 2.373 2.373 0 0 0-1.076-.853 2.35 2.35 0 0 0-2.562.558 2.413 2.413 0 0 0-.486 2.599c.18.434.484.804.873 1.064.388.26.844.399 1.31.399a2.291 2.291 0 0 0 1.705-.71 2.33 2.33 0 0 0 .645-1.745h.02ZM60.992 12.58v9.874c0 3.483-2.703 4.963-5.437 4.963a5.158 5.158 0 0 1-2.793-.559 5.218 5.218 0 0 1-2.083-1.96l2.63-1.531c.214.433.553.791.973 1.026.42.234.9.334 1.377.285a2.062 2.062 0 0 0 1.684-.558 2.098 2.098 0 0 0 .645-1.666v-.955a3.673 3.673 0 0 1-1.345 1.03c-.522.233-1.09.34-1.66.313-1.378 0-2.7-.553-3.675-1.537a5.27 5.27 0 0 1-1.523-3.71 5.27 5.27 0 0 1 1.523-3.709 5.174 5.174 0 0 1 3.675-1.537c.57-.027 1.138.08 1.66.313.521.234.982.586 1.345 1.03v-1.049l3.005-.063Zm-3.004 4.984a2.536 2.536 0 0 0-.37-1.426 2.503 2.503 0 0 0-1.096-.974 2.474 2.474 0 0 0-2.753.477 2.54 2.54 0 0 0-.59 2.756c.186.466.505.866.917 1.148a2.48 2.48 0 0 0 1.397.433 2.31 2.31 0 0 0 1.779-.648 2.354 2.354 0 0 0 .716-1.766ZM62.75 17.774c0-1.09.32-2.156.92-3.062a5.469 5.469 0 0 1 2.452-2.028 5.41 5.41 0 0 1 3.155-.312 5.443 5.443 0 0 1 2.795 1.51 5.525 5.525 0 0 1 1.49 2.824c.21 1.069.1 2.177-.314 3.183a5.497 5.497 0 0 1-2.015 2.47 5.422 5.422 0 0 1-3.035.923 5.354 5.354 0 0 1-2.095-.405 5.392 5.392 0 0 1-1.776-1.193 5.45 5.45 0 0 1-1.18-1.795 5.488 5.488 0 0 1-.397-2.115Zm7.819 0a2.408 2.408 0 0 0-.43-1.313 2.375 2.375 0 0 0-1.079-.853 2.35 2.35 0 0 0-2.563.563 2.414 2.414 0 0 0-.48 2.602c.183.434.489.803.878 1.062.39.259.847.396 1.314.394a2.291 2.291 0 0 0 1.705-.71 2.33 2.33 0 0 0 .644-1.745h.01ZM75.09 9.8c0-.37.108-.73.312-1.038a1.834 1.834 0 0 1 2.847-.283 1.874 1.874 0 0 1 .401 2.036c-.14.34-.377.633-.681.838a1.84 1.84 0 0 1-1.029.315 1.863 1.863 0 0 1-1.302-.554A1.898 1.898 0 0 1 75.09 9.8Zm.301 2.78h3.12v10.388h-3.12V12.58ZM91.86 17.773a5.28 5.28 0 0 1-1.345 3.796 5.198 5.198 0 0 1-1.638 1.22 5.157 5.157 0 0 1-1.977.493 3.836 3.836 0 0 1-1.703-.275 3.869 3.869 0 0 1-1.416-.995v5.131h-3.119V12.58h3.119v.976a3.828 3.828 0 0 1 3.119-1.26A5.163 5.163 0 0 1 90.503 14a5.26 5.26 0 0 1 1.356 3.775Zm-3.12 0a2.496 2.496 0 0 0-.444-1.359 2.46 2.46 0 0 0-1.115-.884 2.435 2.435 0 0 0-2.654.581 2.496 2.496 0 0 0-.498 2.694c.19.449.505.831.909 1.1.403.267.876.41 1.359.408a2.33 2.33 0 0 0 1.785-.718 2.395 2.395 0 0 0 .658-1.822ZM101.351 19.852c0 2.392-2.08 3.41-4.283 3.41a4.48 4.48 0 0 1-2.592-.552 4.538 4.538 0 0 1-1.837-1.924l2.682-1.532c.106.374.337.7.653.924.316.223.698.33 1.083.303.738 0 1.113-.23 1.113-.65 0-1.144-5.064-.535-5.064-4.134 0-2.267 1.893-3.4 4.035-3.4a4.48 4.48 0 0 1 2.34.54c.717.39 1.317.968 1.735 1.674l-2.683 1.427a1.51 1.51 0 0 0-1.382-.913c-.54 0-.863.21-.863.577 0 1.196 5.063.41 5.063 4.25ZM112.652 12.58v10.388h-3.119v-.976a3.542 3.542 0 0 1-2.932 1.29c-2.079 0-3.857-1.5-3.857-4.301v-6.4h3.119v5.927a1.74 1.74 0 0 0 .467 1.363 1.705 1.705 0 0 0 1.331.526c1.124 0 1.913-.671 1.913-2.098V12.58h3.078ZM130.326 16.588v6.38h-3.119V16.86c0-1.05-.489-1.7-1.477-1.7-.988 0-1.611.724-1.611 1.952v5.855H121V16.86c0-1.05-.488-1.7-1.477-1.7-.987 0-1.611.724-1.611 1.952v5.855h-3.119V12.58h3.119v.955a3.187 3.187 0 0 1 1.228-.972 3.157 3.157 0 0 1 1.538-.266 3.024 3.024 0 0 1 1.525.322c.471.24.874.598 1.167 1.042a3.39 3.39 0 0 1 1.318-1.07 3.363 3.363 0 0 1 1.666-.294c2.433 0 3.972 1.7 3.972 4.291ZM14.355 5.078V.618H.424v30.64h13.931v-4.46a10.71 10.71 0 0 1-7.609-3.181 10.91 10.91 0 0 1-3.151-7.68A10.91 10.91 0 0 1 6.746 8.26a10.71 10.71 0 0 1 7.609-3.181Z"/><path d="M14.354 5.078v21.72a10.71 10.71 0 0 0 7.608-3.181 10.91 10.91 0 0 0 3.152-7.68 10.91 10.91 0 0 0-3.152-7.679 10.71 10.71 0 0 0-7.608-3.18ZM132.946 12.518a2.298 2.298 0 0 0 2.287-2.309 2.298 2.298 0 0 0-2.287-2.308 2.298 2.298 0 0 0-2.288 2.308 2.298 2.298 0 0 0 2.288 2.309Z"/></g><defs><clipPath id="ea"><path fill="#fff" d="M0 0h136v32H0z"/></clipPath></defs></symbol><symbol fill="none" viewBox="0 0 135 32" id="Logoipsum2" xmlns="http://www.w3.org/2000/svg"><g clip-path="url(#fa)" fill="#282938"><path d="M39.303 9.347h3.38v13.658h-3.38V9.347Zm4.722 8.5c0-3.377 2.074-5.393 5.275-5.393 3.2 0 5.274 2.016 5.274 5.394s-2.029 5.405-5.274 5.405c-3.246 0-5.275-1.97-5.275-5.405Zm7.157 0c0-1.857-.733-2.95-1.882-2.95-1.15 0-1.871 1.127-1.871 2.95 0 1.825.71 2.928 1.87 2.928 1.162 0 1.883-1.035 1.883-2.916v-.011Zm4.666 5.822h3.246a1.746 1.746 0 0 0 1.825 1.014c1.285 0 1.962-.698 1.962-1.712V21.08h-.068a3.199 3.199 0 0 1-3.077 1.847c-2.468 0-4.102-1.88-4.102-5.112 0-3.231 1.555-5.27 4.147-5.27a3.238 3.238 0 0 1 3.11 1.982v-1.88h3.382v10.246c0 2.466-2.175 3.998-5.387 3.998-2.987 0-4.847-1.34-5.038-3.21v-.01Zm7.044-5.832c0-1.644-.755-2.68-1.95-2.68-1.195 0-1.927 1.024-1.927 2.68 0 1.655.721 2.59 1.927 2.59s1.95-.913 1.95-2.58v-.01Zm4.655 0c0-3.378 2.073-5.394 5.274-5.394s5.286 2.016 5.286 5.394-2.029 5.404-5.286 5.404c-3.257 0-5.274-1.959-5.274-5.393v-.011Zm7.156 0c0-1.858-.732-2.95-1.882-2.95s-1.814 1.137-1.814 2.972.71 2.928 1.86 2.928c1.149 0 1.836-1.047 1.836-2.928v-.022Zm4.689-7.646a1.722 1.722 0 0 1 2.02-1.742 1.725 1.725 0 0 1 1.31 2.323 1.722 1.722 0 0 1-1.572 1.097 1.648 1.648 0 0 1-1.758-1.655v-.023Zm0 2.477h3.381v10.337h-3.381V12.668Zm15.655 5.169c0 3.378-1.5 5.303-4.069 5.303a3.224 3.224 0 0 1-3.156-1.914h-.067v5.09h-3.381v-13.67h3.38v1.846h.068a3.23 3.23 0 0 1 3.133-1.993c2.593.046 4.136 1.982 4.136 5.36l-.044-.022Zm-3.381 0c0-1.644-.756-2.691-1.939-2.691-1.184 0-1.939 1.058-1.95 2.69-.011 1.633.766 2.68 1.95 2.68 1.183 0 1.939-1.024 1.939-2.657v-.022Zm9.185-5.405c2.806 0 4.508 1.329 4.587 3.457h-3.077c0-.732-.608-1.194-1.544-1.194s-1.352.36-1.352.89c0 .529.372.698 1.127.855l2.163.44c2.064.439 2.942 1.272 2.942 2.837 0 2.14-1.95 3.513-4.824 3.513-2.874 0-4.756-1.373-4.902-3.48h3.257c.102.767.71 1.217 1.702 1.217.991 0 1.443-.327 1.443-.867s-.316-.653-1.127-.822l-1.95-.417c-2.018-.416-3.077-1.486-3.077-3.062.023-2.027 1.837-3.345 4.632-3.345v-.022Zm16.128 10.55h-3.258v-1.925h-.067a2.94 2.94 0 0 1-2.998 2.15 3.598 3.598 0 0 1-3.588-2.373c-.174-.483-.241-.999-.199-1.511v-6.677h3.382v5.9c0 1.227.631 1.88 1.679 1.88a1.716 1.716 0 0 0 1.653-1.222c.072-.235.092-.482.06-.726v-5.832h3.382l-.046 10.336Zm1.634-10.336h3.269v1.993h.067a3 3 0 0 1 2.942-2.184 2.691 2.691 0 0 1 2.874 2.252h.068a3.18 3.18 0 0 1 3.178-2.252 3.285 3.285 0 0 1 3.195 2.161c.156.433.219.893.186 1.352v7.037h-3.381v-6.137c0-1.126-.508-1.644-1.454-1.644a1.475 1.475 0 0 0-1.477 1.667v6.114h-3.211v-6.182c0-1.036-.507-1.599-1.432-1.599a1.514 1.514 0 0 0-1.441 1.06 1.527 1.527 0 0 0-.058.63v6.09h-3.381l.056-10.358ZM29.847 9.966a14.917 14.917 0 0 0-2.255-3.625A15.245 15.245 0 0 0 16.42.756a15.262 15.262 0 0 0-11.6 4.632 15.232 15.232 0 0 0-4.243 11.74 15.224 15.224 0 0 0 5.962 10.967 14.758 14.758 0 0 0 3.607 2.06 15.104 15.104 0 0 0 5.714 1.126 15.29 15.29 0 0 0 10.78-4.48 15.26 15.26 0 0 0 4.469-10.777 15.063 15.063 0 0 0-1.262-6.058ZM15.849 3.852c1.76 0 3.498.384 5.094 1.126-.39.168-.798.285-1.217.35a6.46 6.46 0 0 0-5.467 5.46 3.377 3.377 0 0 1-3.054 2.984 6.46 6.46 0 0 0-5.466 5.461 3.275 3.275 0 0 1-.89 1.96 12.15 12.15 0 0 1 .72-11.711 12.168 12.168 0 0 1 10.29-5.652l-.01.022ZM6.528 23.906c.135-.124.27-.237.406-.372a6.168 6.168 0 0 0 1.825-3.637c.073-.777.42-1.504.981-2.049a3.19 3.19 0 0 1 2.04-.968 6.46 6.46 0 0 0 5.466-5.461c.049-.814.398-1.58.98-2.15a3.236 3.236 0 0 1 2.063-.935 6.178 6.178 0 0 0 3.381-1.61c1.063.88 1.963 1.94 2.66 3.13a.966.966 0 0 1-.146.157 3.236 3.236 0 0 1-2.04.991 6.438 6.438 0 0 0-5.466 5.461 3.377 3.377 0 0 1-3.032 3.018 6.495 6.495 0 0 0-5.5 5.46c-.06.551-.25 1.08-.553 1.544a12.274 12.274 0 0 1-3.065-2.579Zm9.32 4.346a12.231 12.231 0 0 1-3.38-.473c.376-.7.62-1.463.72-2.252a3.377 3.377 0 0 1 3.021-3.017 6.46 6.46 0 0 0 5.478-5.461 3.377 3.377 0 0 1 3.02-3.018 6.438 6.438 0 0 0 2.885-1.126 12.172 12.172 0 0 1-2.116 10.524 12.193 12.193 0 0 1-9.627 4.767v.056Z"/></g><defs><clipPath id="fa"><path fill="#fff" d="M0 0h135v32H0z"/></clipPath></defs></symbol><symbol fill="none" viewBox="0 0 153 32" id="Logoipsum3" xmlns="http://www.w3.org/2000/svg"><g clip-path="url(#ga)" fill="#282938"><path d="M49.372 25.492a3.436 3.436 0 0 1-2.164-.621 2.02 2.02 0 0 1-.817-1.697V11.168a.335.335 0 0 1 .225-.36.338.338 0 0 1 .151-.015h2.177c.247 0 .363.13.363.375v11.074c0 .492.22.738.674.738.193.008.385-.014.57-.065.26 0 .402.078.415.31l.195 1.62a.337.337 0 0 1-.311.401c-.477.158-.976.24-1.478.246ZM61.621 24.107a6.107 6.107 0 0 1-7.776 0 5.179 5.179 0 0 1 0-7.292 6.134 6.134 0 0 1 7.776 0 5.256 5.256 0 0 1 0 7.279v.013Zm-5.728-1.71a2.762 2.762 0 0 0 3.706 0 2.9 2.9 0 0 0 0-3.808 2.761 2.761 0 0 0-3.706 0 2.9 2.9 0 0 0 0 3.808ZM75.075 15.753c.246 0 .363.13.363.375v9.286a4.221 4.221 0 0 1-1.439 3.329 5.445 5.445 0 0 1-3.772 1.295 6.068 6.068 0 0 1-3.512-.971 3.887 3.887 0 0 1-1.698-2.59c0-.26 0-.376.35-.376h2.178a.48.48 0 0 1 .427.298c.141.393.423.72.79.92.45.23.948.346 1.453.336a2.292 2.292 0 0 0 1.671-.596 2.2 2.2 0 0 0 .61-1.619v-.816c-.78.573-1.729.87-2.696.842a5.03 5.03 0 0 1-3.681-1.412 5.179 5.179 0 0 1 0-7.2 5.068 5.068 0 0 1 3.68-1.4c.996-.025 1.97.29 2.761.895v-.208a.336.336 0 0 1 .363-.375l2.152-.013Zm-5.029 7.408a2.282 2.282 0 0 0 1.776-.764 3.171 3.171 0 0 0 0-3.886 2.267 2.267 0 0 0-1.763-.75 2.335 2.335 0 0 0-1.802.763 2.744 2.744 0 0 0-.7 1.943 2.796 2.796 0 0 0 .687 1.93 2.347 2.347 0 0 0 1.802.764ZM86.62 24.106a6.134 6.134 0 0 1-7.776 0 5.27 5.27 0 0 1 0-7.292 6.146 6.146 0 0 1 7.777 0 5.256 5.256 0 0 1 0 7.279v.013Zm-5.741-1.71a2.593 2.593 0 0 0 1.866.713 2.594 2.594 0 0 0 1.854-.713 2.938 2.938 0 0 0 0-3.807 2.594 2.594 0 0 0-1.854-.713 2.596 2.596 0 0 0-1.866.713 2.939 2.939 0 0 0 0 3.807ZM92.764 13.551a1.88 1.88 0 0 1-2.475 0 1.567 1.567 0 0 1 0-2.28 1.918 1.918 0 0 1 2.475 0 1.566 1.566 0 0 1 0 2.28Zm.273 11.941a3.487 3.487 0 0 1-2.165-.621 2.045 2.045 0 0 1-.804-1.697V16.13a.338.338 0 0 1 .376-.376h2.178c.246 0 .363.13.363.376v6.113c0 .492.22.738.66.738.197.007.394-.015.584-.065.259 0 .402.078.415.31l.194 1.62a.337.337 0 0 1-.311.401 4.918 4.918 0 0 1-1.49.247ZM102.849 15.442a5.087 5.087 0 0 1 3.707 1.399 5.307 5.307 0 0 1 0 7.24 5.03 5.03 0 0 1-3.707 1.411 4.46 4.46 0 0 1-2.708-.842v4.676c0 .246-.13.363-.376.363h-2.177a.313.313 0 0 1-.355-.214.31.31 0 0 1-.008-.15v-10.62a.673.673 0 0 0-.765-.763h-.428c-.285 0-.427-.104-.427-.311v-1.529a.414.414 0 0 1 .298-.427 3.894 3.894 0 0 1 1.4-.233 2.4 2.4 0 0 1 2.345 1.295 4.37 4.37 0 0 1 3.201-1.295Zm-2.021 6.955a2.468 2.468 0 0 0 1.788.763 2.476 2.476 0 0 0 1.789-.763 2.794 2.794 0 0 0 .713-1.982 2.76 2.76 0 0 0-.713-1.981 2.478 2.478 0 0 0-3.577 0 2.86 2.86 0 0 0-.687 1.981c-.026.723.219 1.43.687 1.982ZM114.098 25.492a6.252 6.252 0 0 1-3.331-.803 3.168 3.168 0 0 1-1.014-.975 3.17 3.17 0 0 1-.489-1.317c0-.26.091-.389.376-.389h1.905a.49.49 0 0 1 .427.285c.273.7.985 1.05 2.126 1.05.398.017.794-.063 1.154-.234a.76.76 0 0 0 .441-.635c0-.336-.208-.57-.623-.725a7.009 7.009 0 0 0-1.516-.324 14.47 14.47 0 0 1-1.815-.323 2.98 2.98 0 0 1-1.516-.868 2.781 2.781 0 0 1-.595-2.129 2.787 2.787 0 0 1 1.152-1.886 5.343 5.343 0 0 1 3.136-.829 5.728 5.728 0 0 1 3.059.764 2.894 2.894 0 0 1 1.427 2.034c0 .259-.118.388-.351.388h-1.918a.405.405 0 0 1-.389-.233 1.297 1.297 0 0 0-.674-.686 2.284 2.284 0 0 0-1.115-.26c-.38-.02-.759.056-1.101.22a.645.645 0 0 0-.414.596.826.826 0 0 0 .621.765 7.044 7.044 0 0 0 1.542.388c.607.08 1.208.192 1.802.337a2.98 2.98 0 0 1 1.517.868 2.446 2.446 0 0 1 .635 1.774 2.593 2.593 0 0 1-1.206 2.254 5.665 5.665 0 0 1-3.253.893ZM132.257 24.845a.348.348 0 0 1-.065.263.34.34 0 0 1-.233.138 5.006 5.006 0 0 1-1.464.246 2.88 2.88 0 0 1-2.593-1.126 4.692 4.692 0 0 1-3.304 1.126 4.021 4.021 0 0 1-3.034-1.178 4.254 4.254 0 0 1-1.153-3.122V16.13c0-.247.116-.376.363-.376h2.178c.245 0 .362.13.362.376v4.675a2.294 2.294 0 0 0 .558 1.593 1.946 1.946 0 0 0 1.49.609 2.155 2.155 0 0 0 1.555-.57 2.062 2.062 0 0 0 .584-1.541v-4.766c0-.247.116-.376.362-.376h2.204c.246 0 .362.13.362.376v6.1c0 .505.221.75.649.75.2.009.402-.013.596-.064a.339.339 0 0 1 .428.311l.155 1.619ZM152.851 24.845a.327.327 0 0 1-.298.402 5.04 5.04 0 0 1-1.491.246 3.467 3.467 0 0 1-2.165-.622 2.012 2.012 0 0 1-.867-1.697v-3.043a2.295 2.295 0 0 0-.546-1.593 1.836 1.836 0 0 0-1.451-.609 1.617 1.617 0 0 0-1.295.57 2.297 2.297 0 0 0-.493 1.528v4.78c0 .245-.117.375-.363.375h-2.191a.34.34 0 0 1-.279-.096.336.336 0 0 1-.097-.28v-4.675a2.393 2.393 0 0 0-.505-1.593 1.685 1.685 0 0 0-1.296-.609 1.882 1.882 0 0 0-1.425.57c-.371.42-.562.969-.532 1.528v4.78a.336.336 0 0 1-.376.375h-2.112c-.247 0-.364-.13-.364-.376v-6.1a.677.677 0 0 0-.19-.574.672.672 0 0 0-.574-.19h-.428c-.285 0-.428-.104-.428-.31v-1.529a.415.415 0 0 1 .299-.427 3.882 3.882 0 0 1 1.399-.234 2.44 2.44 0 0 1 2.308 1.192 4.37 4.37 0 0 1 3.292-1.192 3.718 3.718 0 0 1 3.071 1.373 4.28 4.28 0 0 1 3.396-1.373 4.096 4.096 0 0 1 3.071 1.179 4.232 4.232 0 0 1 1.154 3.121v2.5c0 .492.22.738.635.738.201.01.402-.012.596-.065.268 0 .41.104.428.311l.117 1.62ZM.873 14.07a17.73 17.73 0 0 1 6.291-9.688 17.751 17.751 0 0 1 21.855 0 17.73 17.73 0 0 1 6.29 9.688h-1.554a12.565 12.565 0 0 0-7.35 2.24c-.124.09-.253.173-.388.246h-.181a3.707 3.707 0 0 1-.39-.246 13.187 13.187 0 0 0-14.71 0c-.124.09-.254.173-.389.246h-.181a3.714 3.714 0 0 1-.389-.246 12.565 12.565 0 0 0-7.349-2.24H.873Zm30.082 8.12a4.37 4.37 0 0 1 2.8-.92h2.086v-4.157h-2.086a8.273 8.273 0 0 0-4.964 1.58 4.72 4.72 0 0 1-5.6 0 8.818 8.818 0 0 0-10.07 0 4.72 4.72 0 0 1-5.599 0 8.273 8.273 0 0 0-5.029-1.58H.342v4.158h2.086a4.37 4.37 0 0 1 2.8.92 8.792 8.792 0 0 0 10.058 0c.799-.62 1.788-.945 2.8-.92a4.344 4.344 0 0 1 2.799.92 8.818 8.818 0 0 0 10.07 0Zm0 7.434a4.37 4.37 0 0 1 2.8-.92h2.086v-4.157h-2.086a8.273 8.273 0 0 0-4.964 1.58 4.72 4.72 0 0 1-5.6 0 8.818 8.818 0 0 0-10.07 0 4.72 4.72 0 0 1-5.599 0 8.273 8.273 0 0 0-5.029-1.58H.342v4.158h2.086a4.37 4.37 0 0 1 2.8.92 8.791 8.791 0 0 0 10.058 0c.799-.62 1.788-.945 2.8-.92a4.344 4.344 0 0 1 2.799.92 8.818 8.818 0 0 0 10.07 0Z"/></g><defs><clipPath id="ga"><path fill="#fff" d="M0 0h153v32H0z"/></clipPath></defs></symbol><symbol fill="none" viewBox="0 0 136 32" id="Logoipsum4" xmlns="http://www.w3.org/2000/svg"><g clip-path="url(#ha)" fill="#282938"><path d="M39 9.9h3.42v13.867H39V9.9Zm4.783 8.651c0-3.435 2.13-5.493 5.327-5.493 3.196 0 5.326 2.058 5.326 5.493 0 3.435-2.056 5.515-5.326 5.515-3.27 0-5.327-2.005-5.327-5.515Zm7.266 0c0-1.888-.735-2.997-1.907-2.997-1.172 0-1.897 1.066-1.897 2.997 0 1.93.725 2.987 1.897 2.987 1.172 0 1.928-1.056 1.928-2.976l-.021-.01Zm4.75 5.931h3.303a1.77 1.77 0 0 0 1.854 1.067c1.31 0 1.992-.704 1.992-1.75v-1.92h.01a3.273 3.273 0 0 1-3.195 1.867c-2.504 0-4.166-1.91-4.166-5.195s1.588-5.333 4.262-5.333a3.267 3.267 0 0 1 3.196 2.016h-.096v-1.931h3.388v10.39c0 2.506-2.216 4.075-5.476 4.075-2.962-.011-4.858-1.366-5.05-3.275l-.021-.01Zm7.16-5.93c0-1.676-.767-2.732-1.982-2.732-1.214 0-1.96 1.067-1.96 2.731s.735 2.646 1.96 2.646c1.226 0 1.982-.907 1.982-2.646Zm4.74 0c0-3.436 2.131-5.495 5.327-5.495s5.327 2.06 5.327 5.494c0 3.435-2.067 5.515-5.327 5.515s-5.305-2.005-5.305-5.515h-.022Zm7.266 0c0-1.889-.746-2.998-1.907-2.998s-1.896 1.066-1.896 2.997c0 1.93.724 2.987 1.896 2.987s1.928-1.056 1.928-2.976l-.021-.01Zm4.772-7.777a1.752 1.752 0 0 1 1.026-1.669 1.746 1.746 0 0 1 2.428 1.224 1.751 1.751 0 0 1-1.706 2.12 1.681 1.681 0 0 1-1.726-1.665l-.022-.01Zm0 2.517H83.2V23.81h-3.41l-.053-10.518Zm15.916 5.26c0 3.423-1.534 5.407-4.144 5.407a3.268 3.268 0 0 1-3.196-1.952h-.064v5.185h-3.42V13.324h3.399v1.878h.064a3.293 3.293 0 0 1 3.195-2.027c2.685-.022 4.23 1.952 4.23 5.387l-.064-.01Zm-3.483 0c0-1.665-.778-2.742-1.982-2.742s-1.96 1.066-1.97 2.741c-.011 1.675.766 2.73 1.97 2.73s2.046-.991 2.046-2.72l-.064-.01Zm9.321-5.505c2.866 0 4.645 1.355 4.666 3.53h-3.121c0-.757-.628-1.226-1.566-1.226-.938 0-1.385.363-1.385.907s.394.714 1.183.874l2.194.448c2.131.449 2.983 1.302 2.983 2.891 0 2.134-1.971 3.584-4.9 3.584-2.93 0-4.837-1.408-4.975-3.552h3.313c.095.779.713 1.238 1.715 1.238 1.001 0 1.47-.32 1.47-.886 0-.565-.319-.661-1.14-.832l-1.982-.416c-2.056-.437-3.132-1.514-3.132-3.125.065-2.091 1.854-3.425 4.741-3.425l-.064-.01Zm16.406 10.752h-3.313v-1.973h-.064a3.004 3.004 0 0 1-3.057 2.187 3.65 3.65 0 0 1-3.565-2.44 3.659 3.659 0 0 1-.196-1.518v-6.752h3.42v6.016c0 1.238.65 1.91 1.715 1.91a1.745 1.745 0 0 0 1.666-1.265c.068-.24.085-.493.049-.74v-5.921h3.409l-.064 10.496Zm1.651-10.507h3.324v2.027h.074a3.047 3.047 0 0 1 2.994-2.219 2.726 2.726 0 0 1 2.919 2.23h.149a3.201 3.201 0 0 1 3.196-2.23 3.318 3.318 0 0 1 2.519 1.016 3.328 3.328 0 0 1 .923 2.558v7.136h-3.442v-6.262c0-1.066-.501-1.664-1.47-1.664a1.488 1.488 0 0 0-1.452 1.06 1.506 1.506 0 0 0-.05.636v6.23h-3.26v-6.294c0-1.066-.522-1.632-1.459-1.632a1.521 1.521 0 0 0-1.468 1.075 1.537 1.537 0 0 0-.056.643v6.208h-3.419l-.022-10.518ZM32.236 10.806c0-2.123-.64-4.196-1.837-5.949a10.512 10.512 0 0 0-16.444-1.176H.66v28.097h28.071V18.647a10.529 10.529 0 0 0 3.505-7.84Zm-5.401 0a5.147 5.147 0 0 1-3.163 4.758 5.128 5.128 0 0 1-5.599-1.108 5.144 5.144 0 0 1 3.627-8.78c1.36 0 2.665.54 3.627 1.502a5.145 5.145 0 0 1 1.508 3.628ZM23.33 26.37H6.061V9.089h5.263a10.197 10.197 0 0 0-.16 1.717 10.568 10.568 0 0 0 3.09 7.457 10.54 10.54 0 0 0 7.446 3.093c.546-.003 1.091-.05 1.63-.139v5.153Z"/></g><defs><clipPath id="ha"><path fill="#fff" d="M0 0h136v32H0z"/></clipPath></defs></symbol><symbol fill="none" viewBox="0 0 16 17" id="Twitter" xmlns="http://www.w3.org/2000/svg"><path d="M5.033 15.407c6.037 0 9.34-5.315 9.34-9.923 0-.15-.004-.302-.01-.451A6.913 6.913 0 0 0 16 3.227a6.177 6.177 0 0 1-1.884.548 3.477 3.477 0 0 0 1.443-1.929 6.369 6.369 0 0 1-2.083.847 3.232 3.232 0 0 0-1.863-1.053 3.12 3.12 0 0 0-2.081.367 3.416 3.416 0 0 0-1.443 1.635 3.693 3.693 0 0 0-.21 2.23 8.897 8.897 0 0 1-3.746-1.056A9.453 9.453 0 0 1 1.115 2.23a3.682 3.682 0 0 0-.358 2.54A3.5 3.5 0 0 0 2.13 6.887 3.14 3.14 0 0 1 .644 6.45v.043c0 .805.261 1.586.742 2.21a3.253 3.253 0 0 0 1.891 1.21c-.482.14-.989.16-1.48.06.21.692.617 1.298 1.167 1.733.55.434 1.213.676 1.898.69a6.34 6.34 0 0 1-4.078 1.494 6.2 6.2 0 0 1-.784-.05 8.918 8.918 0 0 0 5.033 1.566Z" fill="currentColor"/></symbol><symbol viewBox="0 0 48 48" id="telegram" xmlns="http://www.w3.org/2000/svg"><path fill="#29b6f6" d="M24 4a20 20 0 1 0 0 40 20 20 0 1 0 0-40Z"/><path fill="#fff" d="m33.95 15-3.746 19.126s-.161.874-1.245.874c-.576 0-.873-.274-.873-.274l-8.114-6.733-3.97-2.001-5.095-1.355S10 24.375 10 23.625c0-.625.933-.923.933-.923l21.316-8.468c-.001-.001.651-.235 1.126-.234.292 0 .625.125.625.5 0 .25-.05.5-.05.5z"/><path fill="#b0bec5" d="m23 30.505-3.426 3.374s-.149.115-.348.12a.494.494 0 0 1-.219-.043l.964-5.965L23 30.505z"/><path fill="#cfd8dc" d="M29.897 18.196a.5.5 0 0 0-.701-.093L16 26s2.106 5.892 2.427 6.912c.322 1.021.58 1.045.58 1.045l.964-5.965 9.832-9.096a.499.499 0 0 0 .094-.7z"/></symbol><symbol viewBox="0 0 48 48" id="youtube" xmlns="http://www.w3.org/2000/svg"><path fill="#FF3D00" d="M43.2 33.9c-.4 2.1-2.1 3.7-4.2 4-3.3.5-8.8 1.1-15 1.1-6.1 0-11.6-.6-15-1.1-2.1-.3-3.8-1.9-4.2-4-.4-2.3-.8-5.7-.8-9.9s.4-7.6.8-9.9c.4-2.1 2.1-3.7 4.2-4C12.3 9.6 17.8 9 24 9c6.2 0 11.6.6 15 1.1 2.1.3 3.8 1.9 4.2 4 .4 2.3.9 5.7.9 9.9-.1 4.2-.5 7.6-.9 9.9z"/><path fill="#FFF" d="M20 31V17l12 7z"/></symbol></svg>